<svg xmlns="http://www.w3.org/2000/svg" viewBox="0 0 600 700"><defs><style>.cls-1{fill:#e91e63;}.cls-2{fill:#c2185b;}.cls-3{fill:#00bcd4;}.cls-4{fill:#0097a7;}</style></defs><g id="Shadow"><g id="Place_Shadow_Bright" data-name="Place Shadow Bright"><path class="cls-1" d="M600,650V50H500V350H300V650ZM400,450H500V550H400Z"/></g><g id="Place_Shadow_Dark" data-name="Place Shadow Dark"><path class="cls-2" d="M550,650V50H450V350H250V650ZM350,450H450V550H350Z"/></g><g id="Parlor_Shadow_Bright" data-name="Parlor Shadow Bright"><path class="cls-3" d="M0,50V650H100V350H300V50ZM200,250H100V150H200Z"/></g><g id="Parlor_Shadow_Dark" data-name="Parlor Shadow Dark"><path class="cls-4" d="M50,50V650H150V350H350V50ZM250,250H150V150H250Z"/></g></g><g id="Main"><g id="Place"><path d="M535,700a15,15,0,0,0,15-15V115a15,15,0,0,0-15-15H465a15,15,0,0,0-15,15V385a15,15,0,0,1-15,15H265a15,15,0,0,0-15,15V685a15,15,0,0,0,15,15ZM350,515a15,15,0,0,1,15-15h70a15,15,0,0,1,15,15v70a15,15,0,0,1-15,15H365a15,15,0,0,1-15-15Z"/></g><g id="Parlor"><path d="M65,0A15,15,0,0,0,50,15V585a15,15,0,0,0,15,15h70a15,15,0,0,0,15-15V315a15,15,0,0,1,15-15H335a15,15,0,0,0,15-15V15A15,15,0,0,0,335,0ZM250,185a15,15,0,0,1-15,15H165a15,15,0,0,1-15-15V115a15,15,0,0,1,15-15h70a15,15,0,0,1,15,15Z"/></g></g></svg>